<?xml version="1.0" encoding="UTF-8" standalone="no"?>
<svg width="28px" height="29px" viewBox="0 0 28 29" version="1.1" xmlns="http://www.w3.org/2000/svg" xmlns:xlink="http://www.w3.org/1999/xlink" xmlns:sketch="http://www.bohemiancoding.com/sketch/ns">
    <title>Untitled 2</title>
    <description>Created with Sketch (http://www.bohemiancoding.com/sketch)</description>
    <defs></defs>
    <g id="Page-1" stroke="none" stroke-width="1" fill="none" fill-rule="evenodd" sketch:type="MSPage">
        <g id="down" sketch:type="MSLayerGroup" transform="translate(1.000000, 1.000000)">
            <path d="M13,1 C5.7,1 -0.2,6.9 -0.2,14.1 C-0.2,21.4 5.7,27.3 13,27.3 C20.3,27.3 26.2,21.4 26.2,14.1 C26.2,6.9 20.3,1 13,1 L13,1 Z M17.3,16 L13,23.5 L8.7,16 L4.4,8.5 L21.6,8.5 L17.3,16 L17.3,16 Z" id="Shape" fill="#00414D" sketch:type="MSShapeGroup"></path>
            <path d="M13,-0.2 C5.7,-0.2 -0.2,5.7 -0.2,13 C-0.2,20.3 5.7,26.2 13,26.2 C20.3,26.2 26.2,20.3 26.2,13 C26.2,5.7 20.3,-0.2 13,-0.2 L13,-0.2 Z M17.3,14.9 L13,22.3 L8.7,14.9 L4.4,7.4 L21.6,7.4 L17.3,14.9 L17.3,14.9 Z" id="Shape" fill="#FFFFFF" sketch:type="MSShapeGroup"></path>
        </g>
    </g>
</svg>